<?xml version="1.0" encoding="utf-8"?><svg xmlns="http://www.w3.org/2000/svg" xmlns:xlink="http://www.w3.org/1999/xlink"><symbol viewBox="0 0 42 36" id="down" xmlns="http://www.w3.org/2000/svg"><path fill-rule="evenodd" clip-rule="evenodd" d="M4.243 1.414a2 2 0 10-2.829 2.829L19.8 22.627a2 2 0 00.434.33 2 2 0 002.43-.309L41.048 4.263a2 2 0 00-2.828-2.828L21.242 18.413l-17-16.999z"/><path fill-rule="evenodd" clip-rule="evenodd" d="M4.243 13.435a2 2 0 10-2.829 2.828L19.8 34.648a2 2 0 00.434.33 2 2 0 002.43-.309l18.385-18.385a2 2 0 00-2.828-2.828L21.242 30.434l-17-16.999z"/></symbol><symbol fill="none" viewBox="0 0 130 37" id="logo" xmlns="http://www.w3.org/2000/svg"><path d="M33.68 25.93c0-1.203-.43-2.14-1.29-2.813-.843-.672-2.335-1.367-4.476-2.086-2.14-.718-3.89-1.414-5.25-2.086-4.422-2.172-6.633-5.156-6.633-8.953 0-1.89.547-3.555 1.64-4.992 1.11-1.453 2.673-2.578 4.688-3.375C24.375.812 26.641.406 29.156.406c2.453 0 4.649.438 6.586 1.313 1.953.875 3.469 2.125 4.547 3.75 1.078 1.61 1.617 3.453 1.617 5.531h-8.203c0-1.39-.43-2.469-1.289-3.234C31.57 7 30.422 6.617 28.97 6.617c-1.469 0-2.633.328-3.492.985-.844.64-1.266 1.46-1.266 2.46 0 .876.469 1.672 1.406 2.391.938.703 2.586 1.438 4.945 2.203 2.36.75 4.297 1.563 5.813 2.438 3.688 2.125 5.531 5.054 5.531 8.789 0 2.984-1.125 5.328-3.375 7.031-2.25 1.703-5.336 2.555-9.258 2.555-2.765 0-5.273-.492-7.523-1.477-2.234-1-3.922-2.36-5.063-4.078C15.563 28.18 15 26.187 15 23.937h8.25c0 1.829.469 3.18 1.406 4.055.953.86 2.492 1.29 4.617 1.29 1.36 0 2.43-.29 3.211-.868.797-.594 1.196-1.422 1.196-2.484zM73.656 21.406H60.391V35h-8.227V.875h22.828v6.352H60.391v7.851h13.265v6.328zM100.906 15.313L107.188.5h8.882l-10.992 21.867v12.258h-8.344V22.367L85.766.5h8.836l6.304 14.813zM125.359 26.96c1.25 0 2.289.376 3.118 1.126.828.734 1.242 1.68 1.242 2.836s-.414 2.11-1.242 2.86c-.829.734-1.868 1.1-3.118 1.1-1.265 0-2.312-.374-3.14-1.124-.813-.75-1.219-1.696-1.219-2.836s.406-2.086 1.219-2.836c.828-.75 1.875-1.125 3.14-1.125zM0 0h5v37H0z" fill="#fff"/></symbol><symbol viewBox="0 0 20 20" id="phone" xmlns="http://www.w3.org/2000/svg"><path d="M19.452 14.14l-4.384-1.874c-.117-.04-.234-.079-.39-.079a.952.952 0 00-.705.352l-1.957 2.383a14.51 14.51 0 01-6.928-6.914l2.388-1.953a.966.966 0 00.352-.742c0-.118-.04-.235-.078-.352L5.87.586A.989.989 0 004.97 0c-.038 0-.117.04-.195.04L.705.976C.274 1.094 0 1.445 0 1.875 0 11.915 8.102 20 18.16 20c.431 0 .783-.273.9-.703l.94-4.063v-.195c0-.39-.235-.742-.548-.898z" fill="#fff"/></symbol><symbol viewBox="0 0 30 30" id="question" xmlns="http://www.w3.org/2000/svg"><circle cx="15" cy="15" r="15" fill="#6789FF"/><path d="M15.18 7.8c-2.25 0-3.712.928-4.865 2.587-.197.282-.14.703.169.9l1.209.928a.667.667 0 00.928-.112c.703-.872 1.238-1.378 2.335-1.378.871 0 1.94.534 1.94 1.378 0 .647-.534.956-1.378 1.434-1.013.563-2.334 1.266-2.334 3.01v.253c0 .394.309.675.675.675h2.053a.666.666 0 00.675-.675v-.14c0-1.21 3.515-1.266 3.515-4.529 0-2.447-2.559-4.331-4.921-4.331zm-.28 10.519a1.95 1.95 0 00-1.97 1.94 1.95 1.95 0 001.97 1.94c1.068 0 1.94-.871 1.94-1.94s-.872-1.94-1.94-1.94z" fill="#fff"/></symbol><symbol viewBox="0 0 35 30" id="quotes" xmlns="http://www.w3.org/2000/svg"><path d="M31.071 0H22.5a3.215 3.215 0 00-3.214 3.214v8.572c0 1.808 1.406 3.214 3.214 3.214h5.357v4.286a4.272 4.272 0 01-4.286 4.285h-.535c-.938 0-1.607.737-1.607 1.608v3.214c0 .937.67 1.607 1.607 1.607h.535c5.893 0 10.715-4.755 10.715-10.714V3.214C34.286 1.474 32.812 0 31.07 0zM11.786 0H3.214A3.215 3.215 0 000 3.214v8.572C0 13.594 1.406 15 3.214 15h5.357v4.286a4.273 4.273 0 01-4.285 4.285H3.75c-.938 0-1.607.737-1.607 1.608v3.214c0 .937.67 1.607 1.607 1.607h.536C10.179 30 15 25.245 15 19.286V3.214C15 1.474 13.527 0 11.786 0z"/></symbol><symbol viewBox="0 0 39 43" id="services_01" xmlns="http://www.w3.org/2000/svg"><path d="M7.4 30.15v9.1h17.15v-3.5l2.1-2.45h5.25l2.8-2.45V25.6h2.8L35.4 20 34 11.25l-7.35-9.1L17.2.05l-6.65 2.1-6.65 6.3-2.45 7.35C.05 18.88 4.833 26.65 7.4 30.15z" fill="#fff"/><path d="M27.342 19.043l-.722-.417a8.14 8.14 0 000-1.388l.722-.417a1.232 1.232 0 00.45-1.683l-2.46-4.267a1.23 1.23 0 00-1.681-.45l-.728.42a8.561 8.561 0 00-1.195-.69V9.31c0-.68-.55-1.232-1.23-1.232h-4.922c-.68 0-1.23.551-1.23 1.232v.84a8.561 8.561 0 00-1.196.69l-.727-.42a1.23 1.23 0 00-1.68.451l-2.461 4.267a1.233 1.233 0 00.45 1.683l.722.417a8.168 8.168 0 000 1.388l-.722.417a1.232 1.232 0 00-.45 1.683l2.46 4.267a1.23 1.23 0 001.681.45l.727-.42c.38.262.778.493 1.195.69v.842c0 .68.551 1.231 1.231 1.231h4.922c.68 0 1.23-.551 1.23-1.231v-.841a8.542 8.542 0 001.195-.69l.728.42a1.23 1.23 0 001.68-.451l2.461-4.267c.34-.59.138-1.343-.45-1.683zm-3.261-2.235c.073.394.108.762.108 1.124 0 .362-.035.73-.108 1.123-.095.514.143 1.03.595 1.292l.37.214-1.23 2.133-.374-.216a1.23 1.23 0 00-1.415.131 6.124 6.124 0 01-1.941 1.122c-.49.174-.819.64-.819 1.16v.432h-2.46v-.431c0-.522-.328-.987-.82-1.161a6.126 6.126 0 01-1.94-1.122 1.23 1.23 0 00-1.415-.13l-.374.215-1.23-2.133.37-.214c.452-.261.69-.779.595-1.292a6.108 6.108 0 01-.108-1.123c0-.362.035-.73.108-1.123a1.232 1.232 0 00-.595-1.292l-.37-.213 1.23-2.134.374.216a1.23 1.23 0 001.415-.131 6.128 6.128 0 011.94-1.122c.492-.174.82-.64.82-1.16v-.432h2.46v.431c0 .522.328.987.819 1.161.716.255 1.37.632 1.94 1.122.397.34.964.392 1.416.13l.373-.215 1.23 2.133-.37.214c-.45.261-.69.778-.594 1.291z" fill="#6789FF"/><path d="M18.037 14.237a3.698 3.698 0 00-3.692 3.695 3.698 3.698 0 003.692 3.696 3.698 3.698 0 003.691-3.696 3.698 3.698 0 00-3.691-3.695zm0 4.927a1.232 1.232 0 010-2.464 1.233 1.233 0 010 2.464z" fill="#6789FF"/><path d="M38.825 26.414l-2.18-4.366a9.398 9.398 0 01-.972-4.157 17.537 17.537 0 00-1.538-7.181 17.591 17.591 0 00-4.141-5.757 17.528 17.528 0 00-6.05-3.661 17.605 17.605 0 00-7.324-.96C8 1.007 1.046 8.032.444 16.672c-.33 4.74 1.206 9.309 4.325 12.868.886 1.01 1.373 2.277 1.373 3.568v7.982c0 .68.551 1.231 1.23 1.231H24.6c.68 0 1.23-.551 1.23-1.231v-3.45c0-1.133.919-2.052 2.052-2.052h4.101a3.693 3.693 0 003.691-3.696v-3.695h2.051c.915 0 1.51-.964 1.1-1.783zm-4.382-.68c-.68 0-1.23.551-1.23 1.231v4.927c0 .68-.551 1.232-1.23 1.232H27.88a4.514 4.514 0 00-4.512 4.517v2.217H8.603v-6.75c0-1.889-.705-3.733-1.984-5.193-2.683-3.061-4.004-6.993-3.72-11.07.518-7.433 6.499-13.476 13.913-14.057 4.285-.336 8.374 1.077 11.513 3.976a15.25 15.25 0 014.887 11.133c.005 1.833.43 3.65 1.231 5.253l1.29 2.583h-1.29z" fill="#6789FF"/></symbol><symbol viewBox="0 0 80 44" id="services_02" xmlns="http://www.w3.org/2000/svg"><path d="M18.907 21.925C18.907 10.372 28.221.957 39.728.81 21.444.923 6.558 12.48.477 20.508a2.344 2.344 0 000 2.835C7.62 32.77 22.964 42.933 39.728 43.04c-11.506-.147-20.822-9.562-20.822-21.115zm16.212-15.68c-6.67 2.083-11.525 8.324-11.525 15.68 0 7.357 4.855 13.598 11.525 15.681-2.1-3.699-4.494-9.316-4.494-15.68 0-6.365 2.394-11.982 4.494-15.682zm4.886.98c-1.92 3.066-4.692 8.556-4.692 14.7 0 6.172 2.764 11.644 4.682 14.7 1.92-3.065 4.693-8.556 4.693-14.7 0-6.172-2.765-11.643-4.683-14.7zm4.876-.98c2.1 3.699 4.494 9.316 4.494 15.68 0 6.365-2.394 11.982-4.494 15.681 6.67-2.083 11.525-8.324 11.525-15.68 0-7.357-4.855-13.598-11.525-15.682zm34.642 14.263C72.379 11.081 57.036.918 40.272.81c11.506.147 20.821 9.562 20.821 21.115 0 11.553-9.315 20.968-20.821 21.115 17.68-.11 32.68-11.024 39.25-19.697a2.343 2.343 0 000-2.835z"/></symbol><symbol viewBox="0 0 61 61" id="services_03" xmlns="http://www.w3.org/2000/svg"><path d="M32.749.814C28.87.814 25.6 4.088 25.6 7.97c0 3.882 3.27 7.156 7.149 7.156 3.878 0 7.031-3.274 7.031-7.156 0-3.882-3.153-7.156-7.031-7.156zM40.553 15.126c-1.932 2.145-4.7 3.52-7.804 3.52-3.105 0-5.99-1.375-7.921-3.52-1.687 1.873-2.743 4.325-2.743 7.04v1.759c0 .973.786 1.76 1.758 1.76h17.695c.971 0 1.758-.787 1.758-1.76v-1.76c0-2.714-1.057-5.166-2.743-7.039zM17.974 54.826l-8.958-17.98a3.514 3.514 0 00-4.707-1.582l-2.341 1.16a1.762 1.762 0 00-.792 2.365l10.547 21.117a1.759 1.759 0 002.354.79l2.31-1.146a3.521 3.521 0 001.587-4.724zM59.55 29.873a3.502 3.502 0 00-4.64.457L45.3 42.155c-.668.704-1.934 1.127-2.602 1.127h-8.191a1.742 1.742 0 01-1.758-1.76c0-.986.773-1.76 1.758-1.76h7.03a3.528 3.528 0 003.517-3.52 3.528 3.528 0 00-3.516-3.519h-9.211c-.876 0-1.313-.556-2.004-1.161-2.72-2.45-6.79-3.63-10.912-2.674-2.289.53-3.832 1.456-5.397 2.697l-.052-.042-2.543 2.24 9.992 20.057h20.127c3.305 0 6.469-1.584 8.438-4.223l10.312-14.782c1.16-1.549.844-3.8-.738-4.962z"/></symbol></svg>