<?xml version="1.0" encoding="utf-8"?><svg viewBox="0 0 100 36" xmlns="http://www.w3.org/2000/svg"
    xmlns:xlink="http://www.w3.org/1999/xlink">
    <style>
        :root>svg {
            display: none
        }

        :root>svg:target {
            display: block
        }
    </style><svg fill="none" viewBox="0 0 100 25" id="blago" xmlns="http://www.w3.org/2000/svg">
        <path
            d="M9.612 4.872c1.264 0 2.422.307 3.476.921C14.158 6.39 15 7.26 15.616 8.4c.632 1.124.948 2.432.948 3.924s-.316 2.809-.948 3.95c-.615 1.141-1.457 2.019-2.528 2.633-1.054.597-2.212.896-3.476.896-1.773 0-3.09-.483-3.95-1.449v1.185H0V0h5.951v6.11c.843-.826 2.063-1.238 3.66-1.238zM8.19 15.168c.684 0 1.246-.246 1.685-.737.439-.51.658-1.212.658-2.107 0-.895-.22-1.589-.658-2.08-.439-.492-1-.738-1.685-.738s-1.247.246-1.686.738c-.439.491-.658 1.185-.658 2.08s.22 1.598.658 2.107c.44.491 1.001.737 1.686.737zM21.072 0h5.951v19.54h-5.951V0zM38.746 4.872c2.528 0 4.459.57 5.793 1.711 1.334 1.124 2.002 2.862 2.002 5.214v7.742h-5.53v-1.896c-.685 1.44-2.046 2.16-4.082 2.16-1.141 0-2.116-.194-2.923-.58-.79-.403-1.396-.939-1.817-1.606a4.426 4.426 0 01-.606-2.291c0-1.422.544-2.502 1.633-3.239 1.088-.737 2.739-1.106 4.95-1.106h2.397c-.193-1.124-1.097-1.685-2.712-1.685-.65 0-1.308.105-1.975.316-.667.193-1.238.465-1.712.816l-1.896-3.924c.825-.509 1.817-.904 2.976-1.185a14.197 14.197 0 013.502-.447zm-.026 11.35c.42 0 .798-.115 1.132-.343.334-.228.58-.57.737-1.027v-1h-1.474c-1.212 0-1.817.403-1.817 1.21 0 .334.122.615.368.843.264.211.615.316 1.054.316zM68.093 5.135v11.534c0 2.739-.764 4.793-2.291 6.162-1.51 1.387-3.67 2.08-6.478 2.08-1.44 0-2.783-.158-4.03-.474-1.246-.298-2.308-.737-3.186-1.316l2.002-4.056c.562.422 1.273.764 2.133 1.027.86.264 1.685.395 2.475.395 1.194 0 2.063-.254 2.607-.763.544-.51.816-1.256.816-2.239v-.263c-.895 1.018-2.22 1.527-3.976 1.527a7.316 7.316 0 01-3.45-.842 6.635 6.635 0 01-2.528-2.45c-.632-1.07-.948-2.29-.948-3.66 0-1.369.316-2.58.948-3.634a6.443 6.443 0 012.528-2.422 7.139 7.139 0 013.45-.87c1.966 0 3.388.633 4.266 1.897V5.135h5.662zm-8.348 8.98c.702 0 1.282-.211 1.738-.632.474-.44.711-1.001.711-1.686 0-.684-.237-1.237-.71-1.659-.457-.421-1.037-.632-1.739-.632-.72 0-1.317.211-1.79.632-.457.422-.685.975-.685 1.66 0 .684.237 1.246.71 1.685.475.421 1.063.632 1.765.632zM80.968 19.803c-1.597 0-3.037-.316-4.319-.948-1.264-.65-2.255-1.537-2.975-2.66-.72-1.141-1.08-2.431-1.08-3.871s.36-2.721 1.08-3.845c.72-1.14 1.711-2.027 2.975-2.66 1.282-.631 2.722-.947 4.319-.947 1.615 0 3.055.316 4.319.948 1.281.632 2.273 1.518 2.975 2.66.72 1.123 1.08 2.404 1.08 3.844s-.36 2.73-1.08 3.871c-.702 1.123-1.694 2.01-2.975 2.66-1.264.632-2.704.948-4.319.948zm0-4.635c.685 0 1.246-.246 1.685-.737.44-.51.659-1.212.659-2.107 0-.895-.22-1.589-.659-2.08-.439-.492-1-.738-1.685-.738s-1.246.246-1.685.738c-.44.491-.659 1.185-.659 2.08s.22 1.598.659 2.107c.439.491 1 .737 1.685.737zM96.524 19.803c-1 0-1.835-.316-2.502-.948-.65-.65-.974-1.475-.974-2.476 0-1 .325-1.808.974-2.422.667-.632 1.501-.948 2.502-.948 1 0 1.826.316 2.475.948.668.614 1.001 1.422 1.001 2.422 0 1.001-.334 1.826-1 2.476-.65.632-1.475.948-2.476.948z"
            fill="#fff" /></svg><svg viewBox="0 0 42 36" id="down" xmlns="http://www.w3.org/2000/svg">
        <path fill-rule="evenodd" clip-rule="evenodd"
            d="M4.243 1.414a2 2 0 10-2.829 2.829L19.8 22.627a2 2 0 00.434.33 2 2 0 002.43-.309L41.048 4.263a2 2 0 00-2.828-2.828L21.242 18.413l-17-16.999z" />
        <path fill-rule="evenodd" clip-rule="evenodd"
            d="M4.243 13.435a2 2 0 10-2.829 2.828L19.8 34.648a2 2 0 00.434.33 2 2 0 002.43-.309l18.385-18.385a2 2 0 00-2.828-2.828L21.242 30.434l-17-16.999z" />
        </svg><svg fill="none" viewBox="0 0 20 20" id="phone" xmlns="http://www.w3.org/2000/svg">
        <path
            d="M19.452 14.14l-4.384-1.874c-.117-.04-.234-.079-.39-.079a.952.952 0 00-.705.352l-1.957 2.383a14.51 14.51 0 01-6.928-6.914l2.388-1.953a.966.966 0 00.352-.742c0-.118-.04-.235-.078-.352L5.87.586A.989.989 0 004.97 0c-.038 0-.117.04-.195.04L.705.976C.274 1.094 0 1.445 0 1.875 0 11.915 8.102 20 18.16 20c.431 0 .783-.273.9-.703l.94-4.063v-.195c0-.39-.235-.742-.548-.898z"
            fill="#fff" /></svg>
</svg>