<?xml version="1.0" encoding="utf-8"?><svg xmlns="http://www.w3.org/2000/svg" xmlns:xlink="http://www.w3.org/1999/xlink"><symbol viewBox="0 0 100 25" id="blago" xmlns="http://www.w3.org/2000/svg"><path d="M9.612 4.872c1.264 0 2.422.307 3.476.921C14.158 6.39 15 7.26 15.616 8.4c.632 1.124.948 2.432.948 3.924s-.316 2.809-.948 3.95c-.615 1.141-1.457 2.019-2.528 2.633-1.054.597-2.212.896-3.476.896-1.773 0-3.09-.483-3.95-1.449v1.185H0V0h5.951v6.11c.843-.826 2.063-1.238 3.66-1.238zM8.19 15.168c.684 0 1.246-.246 1.685-.737.439-.51.658-1.212.658-2.107 0-.895-.22-1.589-.658-2.08-.439-.492-1-.738-1.685-.738s-1.247.246-1.686.738c-.439.491-.658 1.185-.658 2.08s.22 1.598.658 2.107c.44.491 1.001.737 1.686.737zM21.072 0h5.951v19.54h-5.951V0zM38.746 4.872c2.528 0 4.459.57 5.793 1.711 1.334 1.124 2.002 2.862 2.002 5.214v7.742h-5.53v-1.896c-.685 1.44-2.046 2.16-4.082 2.16-1.141 0-2.116-.194-2.923-.58-.79-.403-1.396-.939-1.817-1.606a4.426 4.426 0 01-.606-2.291c0-1.422.544-2.502 1.633-3.239 1.088-.737 2.739-1.106 4.95-1.106h2.397c-.193-1.124-1.097-1.685-2.712-1.685-.65 0-1.308.105-1.975.316-.667.193-1.238.465-1.712.816l-1.896-3.924c.825-.509 1.817-.904 2.976-1.185a14.197 14.197 0 013.502-.447zm-.026 11.35c.42 0 .798-.115 1.132-.343.334-.228.58-.57.737-1.027v-1h-1.474c-1.212 0-1.817.403-1.817 1.21 0 .334.122.615.368.843.264.211.615.316 1.054.316zM68.093 5.135v11.534c0 2.739-.764 4.793-2.291 6.162-1.51 1.387-3.67 2.08-6.478 2.08-1.44 0-2.783-.158-4.03-.474-1.246-.298-2.308-.737-3.186-1.316l2.002-4.056c.562.422 1.273.764 2.133 1.027.86.264 1.685.395 2.475.395 1.194 0 2.063-.254 2.607-.763.544-.51.816-1.256.816-2.239v-.263c-.895 1.018-2.22 1.527-3.976 1.527a7.316 7.316 0 01-3.45-.842 6.635 6.635 0 01-2.528-2.45c-.632-1.07-.948-2.29-.948-3.66 0-1.369.316-2.58.948-3.634a6.443 6.443 0 012.528-2.422 7.139 7.139 0 013.45-.87c1.966 0 3.388.633 4.266 1.897V5.135h5.662zm-8.348 8.98c.702 0 1.282-.211 1.738-.632.474-.44.711-1.001.711-1.686 0-.684-.237-1.237-.71-1.659-.457-.421-1.037-.632-1.739-.632-.72 0-1.317.211-1.79.632-.457.422-.685.975-.685 1.66 0 .684.237 1.246.71 1.685.475.421 1.063.632 1.765.632zM80.968 19.803c-1.597 0-3.037-.316-4.319-.948-1.264-.65-2.255-1.537-2.975-2.66-.72-1.141-1.08-2.431-1.08-3.871s.36-2.721 1.08-3.845c.72-1.14 1.711-2.027 2.975-2.66 1.282-.631 2.722-.947 4.319-.947 1.615 0 3.055.316 4.319.948 1.281.632 2.273 1.518 2.975 2.66.72 1.123 1.08 2.404 1.08 3.844s-.36 2.73-1.08 3.871c-.702 1.123-1.694 2.01-2.975 2.66-1.264.632-2.704.948-4.319.948zm0-4.635c.685 0 1.246-.246 1.685-.737.44-.51.659-1.212.659-2.107 0-.895-.22-1.589-.659-2.08-.439-.492-1-.738-1.685-.738s-1.246.246-1.685.738c-.44.491-.659 1.185-.659 2.08s.22 1.598.659 2.107c.439.491 1 .737 1.685.737zM96.524 19.803c-1 0-1.835-.316-2.502-.948-.65-.65-.974-1.475-.974-2.476 0-1 .325-1.808.974-2.422.667-.632 1.501-.948 2.502-.948 1 0 1.826.316 2.475.948.668.614 1.001 1.422 1.001 2.422 0 1.001-.334 1.826-1 2.476-.65.632-1.475.948-2.476.948z" fill="#fff"/></symbol><symbol viewBox="0 0 42 36" id="down" xmlns="http://www.w3.org/2000/svg"><path fill-rule="evenodd" clip-rule="evenodd" d="M4.243 1.414a2 2 0 10-2.829 2.829L19.8 22.627a2 2 0 00.434.33 2 2 0 002.43-.309L41.048 4.263a2 2 0 00-2.828-2.828L21.242 18.413l-17-16.999z"/><path fill-rule="evenodd" clip-rule="evenodd" d="M4.243 13.435a2 2 0 10-2.829 2.828L19.8 34.648a2 2 0 00.434.33 2 2 0 002.43-.309l18.385-18.385a2 2 0 00-2.828-2.828L21.242 30.434l-17-16.999z"/></symbol><symbol viewBox="0 0 20 20" id="phone" xmlns="http://www.w3.org/2000/svg"><path d="M19.452 14.14l-4.384-1.874c-.117-.04-.234-.079-.39-.079a.952.952 0 00-.705.352l-1.957 2.383a14.51 14.51 0 01-6.928-6.914l2.388-1.953a.966.966 0 00.352-.742c0-.118-.04-.235-.078-.352L5.87.586A.989.989 0 004.97 0c-.038 0-.117.04-.195.04L.705.976C.274 1.094 0 1.445 0 1.875 0 11.915 8.102 20 18.16 20c.431 0 .783-.273.9-.703l.94-4.063v-.195c0-.39-.235-.742-.548-.898z" fill="#fff"/></symbol><symbol fill="none" viewBox="0 0 17 24" id="question" xmlns="http://www.w3.org/2000/svg"><path d="M8.3 0C4.55 0 2.114 1.547.192 4.313c-.328.468-.234 1.171.282 1.5l2.015 1.546c.469.375 1.172.282 1.547-.187 1.172-1.453 2.063-2.297 3.89-2.297 1.454 0 3.235.89 3.235 2.297 0 1.078-.89 1.594-2.297 2.39-1.687.938-3.89 2.11-3.89 5.016V15a1.11 1.11 0 001.125 1.125H9.52A1.11 1.11 0 0010.645 15v-.234c0-2.016 5.859-2.11 5.859-7.547C16.504 3.14 12.238 0 8.3 0zm-.468 17.531c-1.828 0-3.281 1.453-3.281 3.235C4.55 22.546 6.004 24 7.832 24a3.24 3.24 0 003.234-3.234 3.24 3.24 0 00-3.234-3.235z" fill="#fff"/></symbol><symbol viewBox="0 0 35 30" id="quotes" xmlns="http://www.w3.org/2000/svg"><path d="M31.071 0H22.5a3.215 3.215 0 00-3.214 3.214v8.572c0 1.808 1.406 3.214 3.214 3.214h5.357v4.286a4.272 4.272 0 01-4.286 4.285h-.535c-.938 0-1.607.737-1.607 1.608v3.214c0 .937.67 1.607 1.607 1.607h.535c5.893 0 10.715-4.755 10.715-10.714V3.214C34.286 1.474 32.812 0 31.07 0zM11.786 0H3.214A3.215 3.215 0 000 3.214v8.572C0 13.594 1.406 15 3.214 15h5.357v4.286a4.273 4.273 0 01-4.285 4.285H3.75c-.938 0-1.607.737-1.607 1.608v3.214c0 .937.67 1.607 1.607 1.607h.536C10.179 30 15 25.245 15 19.286V3.214C15 1.474 13.527 0 11.786 0z"/></symbol><symbol viewBox="0 0 39 43" id="services_01" xmlns="http://www.w3.org/2000/svg"><path d="M7.4 30.15v9.1h17.15v-3.5l2.1-2.45h5.25l2.8-2.45V25.6h2.8L35.4 20 34 11.25l-7.35-9.1L17.2.05l-6.65 2.1-6.65 6.3-2.45 7.35C.05 18.88 4.833 26.65 7.4 30.15z" fill="#fff"/><path d="M27.342 19.043l-.722-.417a8.14 8.14 0 000-1.388l.722-.417a1.232 1.232 0 00.45-1.683l-2.46-4.267a1.23 1.23 0 00-1.681-.45l-.728.42a8.561 8.561 0 00-1.195-.69V9.31c0-.68-.55-1.232-1.23-1.232h-4.922c-.68 0-1.23.551-1.23 1.232v.84a8.561 8.561 0 00-1.196.69l-.727-.42a1.23 1.23 0 00-1.68.451l-2.461 4.267a1.233 1.233 0 00.45 1.683l.722.417a8.168 8.168 0 000 1.388l-.722.417a1.232 1.232 0 00-.45 1.683l2.46 4.267a1.23 1.23 0 001.681.45l.727-.42c.38.262.778.493 1.195.69v.842c0 .68.551 1.231 1.231 1.231h4.922c.68 0 1.23-.551 1.23-1.231v-.841a8.542 8.542 0 001.195-.69l.728.42a1.23 1.23 0 001.68-.451l2.461-4.267c.34-.59.138-1.343-.45-1.683zm-3.261-2.235c.073.394.108.762.108 1.124 0 .362-.035.73-.108 1.123-.095.514.143 1.03.595 1.292l.37.214-1.23 2.133-.374-.216a1.23 1.23 0 00-1.415.131 6.124 6.124 0 01-1.941 1.122c-.49.174-.819.64-.819 1.16v.432h-2.46v-.431c0-.522-.328-.987-.82-1.161a6.126 6.126 0 01-1.94-1.122 1.23 1.23 0 00-1.415-.13l-.374.215-1.23-2.133.37-.214c.452-.261.69-.779.595-1.292a6.108 6.108 0 01-.108-1.123c0-.362.035-.73.108-1.123a1.232 1.232 0 00-.595-1.292l-.37-.213 1.23-2.134.374.216a1.23 1.23 0 001.415-.131 6.128 6.128 0 011.94-1.122c.492-.174.82-.64.82-1.16v-.432h2.46v.431c0 .522.328.987.819 1.161.716.255 1.37.632 1.94 1.122.397.34.964.392 1.416.13l.373-.215 1.23 2.133-.37.214c-.45.261-.69.778-.594 1.291z" fill="#6789FF"/><path d="M18.037 14.237a3.698 3.698 0 00-3.692 3.695 3.698 3.698 0 003.692 3.696 3.698 3.698 0 003.691-3.696 3.698 3.698 0 00-3.691-3.695zm0 4.927a1.232 1.232 0 010-2.464 1.233 1.233 0 010 2.464z" fill="#6789FF"/><path d="M38.825 26.414l-2.18-4.366a9.398 9.398 0 01-.972-4.157 17.537 17.537 0 00-1.538-7.181 17.591 17.591 0 00-4.141-5.757 17.528 17.528 0 00-6.05-3.661 17.605 17.605 0 00-7.324-.96C8 1.007 1.046 8.032.444 16.672c-.33 4.74 1.206 9.309 4.325 12.868.886 1.01 1.373 2.277 1.373 3.568v7.982c0 .68.551 1.231 1.23 1.231H24.6c.68 0 1.23-.551 1.23-1.231v-3.45c0-1.133.919-2.052 2.052-2.052h4.101a3.693 3.693 0 003.691-3.696v-3.695h2.051c.915 0 1.51-.964 1.1-1.783zm-4.382-.68c-.68 0-1.23.551-1.23 1.231v4.927c0 .68-.551 1.232-1.23 1.232H27.88a4.514 4.514 0 00-4.512 4.517v2.217H8.603v-6.75c0-1.889-.705-3.733-1.984-5.193-2.683-3.061-4.004-6.993-3.72-11.07.518-7.433 6.499-13.476 13.913-14.057 4.285-.336 8.374 1.077 11.513 3.976a15.25 15.25 0 014.887 11.133c.005 1.833.43 3.65 1.231 5.253l1.29 2.583h-1.29z" fill="#6789FF"/></symbol><symbol viewBox="0 0 80 44" id="services_02" xmlns="http://www.w3.org/2000/svg"><path d="M18.907 21.925C18.907 10.372 28.221.957 39.728.81 21.444.923 6.558 12.48.477 20.508a2.344 2.344 0 000 2.835C7.62 32.77 22.964 42.933 39.728 43.04c-11.506-.147-20.822-9.562-20.822-21.115zm16.212-15.68c-6.67 2.083-11.525 8.324-11.525 15.68 0 7.357 4.855 13.598 11.525 15.681-2.1-3.699-4.494-9.316-4.494-15.68 0-6.365 2.394-11.982 4.494-15.682zm4.886.98c-1.92 3.066-4.692 8.556-4.692 14.7 0 6.172 2.764 11.644 4.682 14.7 1.92-3.065 4.693-8.556 4.693-14.7 0-6.172-2.765-11.643-4.683-14.7zm4.876-.98c2.1 3.699 4.494 9.316 4.494 15.68 0 6.365-2.394 11.982-4.494 15.681 6.67-2.083 11.525-8.324 11.525-15.68 0-7.357-4.855-13.598-11.525-15.682zm34.642 14.263C72.379 11.081 57.036.918 40.272.81c11.506.147 20.821 9.562 20.821 21.115 0 11.553-9.315 20.968-20.821 21.115 17.68-.11 32.68-11.024 39.25-19.697a2.343 2.343 0 000-2.835z"/></symbol><symbol viewBox="0 0 61 61" id="services_03" xmlns="http://www.w3.org/2000/svg"><path d="M32.749.814C28.87.814 25.6 4.088 25.6 7.97c0 3.882 3.27 7.156 7.149 7.156 3.878 0 7.031-3.274 7.031-7.156 0-3.882-3.153-7.156-7.031-7.156zM40.553 15.126c-1.932 2.145-4.7 3.52-7.804 3.52-3.105 0-5.99-1.375-7.921-3.52-1.687 1.873-2.743 4.325-2.743 7.04v1.759c0 .973.786 1.76 1.758 1.76h17.695c.971 0 1.758-.787 1.758-1.76v-1.76c0-2.714-1.057-5.166-2.743-7.039zM17.974 54.826l-8.958-17.98a3.514 3.514 0 00-4.707-1.582l-2.341 1.16a1.762 1.762 0 00-.792 2.365l10.547 21.117a1.759 1.759 0 002.354.79l2.31-1.146a3.521 3.521 0 001.587-4.724zM59.55 29.873a3.502 3.502 0 00-4.64.457L45.3 42.155c-.668.704-1.934 1.127-2.602 1.127h-8.191a1.742 1.742 0 01-1.758-1.76c0-.986.773-1.76 1.758-1.76h7.03a3.528 3.528 0 003.517-3.52 3.528 3.528 0 00-3.516-3.519h-9.211c-.876 0-1.313-.556-2.004-1.161-2.72-2.45-6.79-3.63-10.912-2.674-2.289.53-3.832 1.456-5.397 2.697l-.052-.042-2.543 2.24 9.992 20.057h20.127c3.305 0 6.469-1.584 8.438-4.223l10.312-14.782c1.16-1.549.844-3.8-.738-4.962z"/></symbol></svg>