<svg width="100" height="25" viewBox="0 0 100 25" fill="none" xmlns="http://www.w3.org/2000/svg">
    <path
        d="M9.61165 4.87166C10.8756 4.87166 12.0343 5.17888 13.0876 5.79332C14.1585 6.39021 15.0012 7.25921 15.6156 8.40032C16.2476 9.52387 16.5636 10.8318 16.5636 12.324C16.5636 13.8162 16.2476 15.1329 15.6156 16.274C15.0012 17.4151 14.1585 18.2929 13.0876 18.9073C12.0343 19.5042 10.8756 19.8026 9.61165 19.8026C7.83854 19.8026 6.52188 19.3199 5.66166 18.3543V19.5393H0V0H5.95132V6.10932C6.79399 5.28421 8.01409 4.87166 9.61165 4.87166ZM8.18965 15.168C8.87432 15.168 9.43609 14.9222 9.87498 14.4306C10.3139 13.9215 10.5333 13.2193 10.5333 12.324C10.5333 11.4286 10.3139 10.7352 9.87498 10.2436C9.43609 9.75209 8.87432 9.50632 8.18965 9.50632C7.50498 9.50632 6.94321 9.75209 6.50432 10.2436C6.06543 10.7352 5.84599 11.4286 5.84599 12.324C5.84599 13.2193 6.06543 13.9215 6.50432 14.4306C6.94321 14.9222 7.50498 15.168 8.18965 15.168Z"
        fill="white" />
    <path d="M21.0718 0H27.0231V19.5393H21.0718V0Z" fill="white" />
    <path
        d="M38.7459 4.87166C41.2739 4.87166 43.205 5.44221 44.5392 6.58332C45.8735 7.70687 46.5406 9.44487 46.5406 11.7973V19.5393H41.0106V17.6433C40.3259 19.0828 38.9654 19.8026 36.9289 19.8026C35.7878 19.8026 34.8135 19.6095 34.0059 19.2233C33.2159 18.8195 32.6103 18.2841 32.1889 17.617C31.7852 16.9323 31.5833 16.1686 31.5833 15.326C31.5833 13.904 32.1275 12.8243 33.2159 12.087C34.3044 11.3496 35.9546 10.981 38.1666 10.981H40.5629C40.3698 9.85742 39.4657 9.29565 37.8506 9.29565C37.201 9.29565 36.5427 9.40098 35.8756 9.61165C35.2085 9.80476 34.6379 10.0769 34.1639 10.428L32.2679 6.50432C33.093 5.99521 34.0849 5.60021 35.2436 5.31932C36.4198 5.02088 37.5873 4.87166 38.7459 4.87166ZM38.7196 16.2213C39.1409 16.2213 39.5184 16.1072 39.8519 15.879C40.1855 15.6507 40.4313 15.3084 40.5893 14.852V13.8513H39.1146C37.9033 13.8513 37.2976 14.2551 37.2976 15.0626C37.2976 15.3962 37.4205 15.6771 37.6663 15.9053C37.9296 16.116 38.2807 16.2213 38.7196 16.2213Z"
        fill="white" />
    <path
        d="M68.0927 5.13499V16.669C68.0927 19.4076 67.329 21.4616 65.8017 22.831C64.2919 24.2178 62.1326 24.9113 59.3237 24.9113C57.8842 24.9113 56.5412 24.7533 55.2947 24.4373C54.0483 24.1388 52.9862 23.7 52.1084 23.1206L54.1097 19.0653C54.6715 19.4866 55.3825 19.829 56.2427 20.0923C57.103 20.3556 57.9281 20.4873 58.7181 20.4873C59.9118 20.4873 60.7808 20.2327 61.3251 19.7236C61.8693 19.2145 62.1414 18.4684 62.1414 17.4853V17.222C61.2461 18.2402 59.9206 18.7493 58.1651 18.7493C56.9362 18.7493 55.7863 18.4684 54.7154 17.9066C53.6621 17.3273 52.8194 16.511 52.1874 15.4576C51.5554 14.3867 51.2394 13.1666 51.2394 11.7973C51.2394 10.428 51.5554 9.21665 52.1874 8.16332C52.8194 7.10999 53.6621 6.30243 54.7154 5.74065C55.7863 5.16132 56.9362 4.87166 58.1651 4.87166C60.1313 4.87166 61.5533 5.50366 62.4311 6.76765V5.13499H68.0927ZM59.7451 14.1146C60.4473 14.1146 61.0266 13.904 61.4831 13.4826C61.9571 13.0438 62.1941 12.482 62.1941 11.7973C62.1941 11.1126 61.9571 10.5596 61.4831 10.1383C61.0266 9.71698 60.4473 9.50632 59.7451 9.50632C59.0253 9.50632 58.4284 9.71698 57.9544 10.1383C57.498 10.5596 57.2697 11.1126 57.2697 11.7973C57.2697 12.482 57.5067 13.0438 57.9807 13.4826C58.4547 13.904 59.0428 14.1146 59.7451 14.1146Z"
        fill="white" />
    <path
        d="M80.968 19.8026C79.3705 19.8026 77.9309 19.4866 76.6494 18.8546C75.3854 18.2051 74.3935 17.3185 73.6737 16.195C72.9539 15.0539 72.5941 13.7635 72.5941 12.324C72.5941 10.8844 72.9539 9.60287 73.6737 8.47932C74.3935 7.33821 75.3854 6.45165 76.6494 5.81966C77.9309 5.18766 79.3705 4.87166 80.968 4.87166C82.5832 4.87166 84.0227 5.18766 85.2867 5.81966C86.5683 6.45165 87.5601 7.33821 88.2624 8.47932C88.9821 9.60287 89.342 10.8844 89.342 12.324C89.342 13.7635 88.9821 15.0539 88.2624 16.195C87.5601 17.3185 86.5683 18.2051 85.2867 18.8546C84.0227 19.4866 82.5832 19.8026 80.968 19.8026ZM80.968 15.168C81.6527 15.168 82.2145 14.9222 82.6534 14.4306C83.0923 13.9215 83.3117 13.2193 83.3117 12.324C83.3117 11.4286 83.0923 10.7352 82.6534 10.2436C82.2145 9.75209 81.6527 9.50632 80.968 9.50632C80.2834 9.50632 79.7216 9.75209 79.2827 10.2436C78.8438 10.7352 78.6244 11.4286 78.6244 12.324C78.6244 13.2193 78.8438 13.9215 79.2827 14.4306C79.7216 14.9222 80.2834 15.168 80.968 15.168Z"
        fill="white" />
    <path
        d="M96.524 19.8026C95.5233 19.8026 94.6895 19.4866 94.0224 18.8546C93.3728 18.2051 93.048 17.38 93.048 16.3793C93.048 15.3786 93.3728 14.5711 94.0224 13.9566C94.6895 13.3246 95.5233 13.0086 96.524 13.0086C97.5247 13.0086 98.3498 13.3246 98.9993 13.9566C99.6665 14.5711 100 15.3786 100 16.3793C100 17.38 99.6665 18.2051 98.9993 18.8546C98.3498 19.4866 97.5247 19.8026 96.524 19.8026Z"
        fill="white" />
</svg>