<svg width="42" height="36" viewBox="0 0 42 36" xmlns="http://www.w3.org/2000/svg">
    <path fill-rule="evenodd" clip-rule="evenodd"
        d="M4.24258 1.41416C3.46153 0.633107 2.1952 0.633107 1.41416 1.41416C0.633107 2.1952 0.633107 3.46153 1.41416 4.24258L19.7989 22.6274C19.9311 22.7596 20.0772 22.8694 20.2325 22.9568C20.9995 23.4102 22.0043 23.3073 22.6634 22.6482L41.0482 4.26339C41.8292 3.48234 41.8292 2.21601 41.0482 1.43496C40.2671 0.653913 39.0008 0.653913 38.2198 1.43496L21.2416 18.4132L4.24258 1.41416Z"
         />
    <path fill-rule="evenodd" clip-rule="evenodd"
        d="M4.24258 13.435C3.46153 12.6539 2.1952 12.6539 1.41416 13.435C0.633107 14.216 0.633107 15.4823 1.41416 16.2634L19.7989 34.6482C19.9311 34.7804 20.0772 34.8902 20.2325 34.9776C20.9995 35.431 22.0043 35.3281 22.6634 34.669L41.0482 16.2842C41.8292 15.5032 41.8292 14.2368 41.0482 13.4558C40.2671 12.6747 39.0008 12.6747 38.2198 13.4558L21.2416 30.434L4.24258 13.435Z"
         />
</svg>