<svg width="130" height="37" viewBox="0 0 130 37" fill="none" xmlns="http://www.w3.org/2000/svg">
<path d="M33.6797 25.9297C33.6797 24.7266 33.25 23.7891 32.3906 23.1172C31.5469 22.4453 30.0547 21.75 27.9141 21.0312C25.7734 20.3125 24.0234 19.6172 22.6641 18.9453C18.2422 16.7734 16.0312 13.7891 16.0312 9.99219C16.0312 8.10156 16.5781 6.4375 17.6719 5C18.7812 3.54688 20.3438 2.42188 22.3594 1.625C24.375 0.8125 26.6406 0.40625 29.1562 0.40625C31.6094 0.40625 33.8047 0.84375 35.7422 1.71875C37.6953 2.59375 39.2109 3.84375 40.2891 5.46875C41.3672 7.07812 41.9062 8.92188 41.9062 11H33.7031C33.7031 9.60938 33.2734 8.53125 32.4141 7.76562C31.5703 7 30.4219 6.61719 28.9688 6.61719C27.5 6.61719 26.3359 6.94531 25.4766 7.60156C24.6328 8.24219 24.2109 9.0625 24.2109 10.0625C24.2109 10.9375 24.6797 11.7344 25.6172 12.4531C26.5547 13.1562 28.2031 13.8906 30.5625 14.6562C32.9219 15.4062 34.8594 16.2188 36.375 17.0938C40.0625 19.2188 41.9062 22.1484 41.9062 25.8828C41.9062 28.8672 40.7812 31.2109 38.5312 32.9141C36.2812 34.6172 33.1953 35.4688 29.2734 35.4688C26.5078 35.4688 24 34.9766 21.75 33.9922C19.5156 32.9922 17.8281 31.6328 16.6875 29.9141C15.5625 28.1797 15 26.1875 15 23.9375H23.25C23.25 25.7656 23.7188 27.1172 24.6562 27.9922C25.6094 28.8516 27.1484 29.2812 29.2734 29.2812C30.6328 29.2812 31.7031 28.9922 32.4844 28.4141C33.2812 27.8203 33.6797 26.9922 33.6797 25.9297Z" fill="white"/>
<path d="M73.6562 21.4062H60.3906V35H52.1641V0.875H74.9922V7.22656H60.3906V15.0781H73.6562V21.4062Z" fill="white"/>
<path d="M100.906 15.3125L107.188 0.5H116.07L105.078 22.3672V34.625H96.7344V22.3672L85.7656 0.5H94.6016L100.906 15.3125Z" fill="white"/>
<path d="M125.359 26.9609C126.609 26.9609 127.648 27.3359 128.477 28.0859C129.305 28.8203 129.719 29.7656 129.719 30.9219C129.719 32.0781 129.305 33.0312 128.477 33.7812C127.648 34.5156 126.609 34.8828 125.359 34.8828C124.094 34.8828 123.047 34.5078 122.219 33.7578C121.406 33.0078 121 32.0625 121 30.9219C121 29.7812 121.406 28.8359 122.219 28.0859C123.047 27.3359 124.094 26.9609 125.359 26.9609Z" fill="white"/>
<rect width="5" height="37" fill="white"/>
</svg>
