<svg id="phone" width="20" height="20" viewBox="0 0 20 20" fill="none" xmlns="http://www.w3.org/2000/svg">
    <path
        d="M19.4521 14.1406L15.0685 12.2656C14.9511 12.2266 14.8337 12.1875 14.6771 12.1875C14.4031 12.1875 14.1292 12.3438 13.9726 12.5391L12.0157 14.9219C8.96282 13.4766 6.5362 11.0547 5.08806 8.00781L7.47554 6.05469C7.67123 5.89844 7.82779 5.625 7.82779 5.3125C7.82779 5.19531 7.78865 5.07812 7.74951 4.96094L5.87084 0.585938C5.71429 0.234375 5.36204 0 4.97065 0C4.93151 0 4.85323 0.0390625 4.77495 0.0390625L0.704501 0.976562C0.273973 1.09375 0 1.44531 0 1.875C0 11.9141 8.10176 20 18.1605 20C18.591 20 18.9432 19.7266 19.0607 19.2969L20 15.2344C20 15.1562 20 15.0781 20 15.0391C20 14.6484 19.7652 14.2969 19.4521 14.1406Z"
        fill="white" />
</svg>