<svg width="17" height="24" viewBox="0 0 17 24" fill="none" xmlns="http://www.w3.org/2000/svg">
<path d="M8.30077 0C4.55077 0 2.11327 1.54688 0.191399 4.3125C-0.136726 4.78125 -0.0429764 5.48438 0.472649 5.8125L2.48827 7.35938C2.95702 7.73438 3.66015 7.64062 4.03515 7.17188C5.20702 5.71875 6.09765 4.875 7.92577 4.875C9.3789 4.875 11.1601 5.76562 11.1601 7.17188C11.1601 8.25 10.2695 8.76562 8.86327 9.5625C7.17577 10.5 4.97265 11.6719 4.97265 14.5781V15C4.97265 15.6562 5.48827 16.125 6.09765 16.125H9.51952C10.1289 16.125 10.6445 15.6562 10.6445 15V14.7656C10.6445 12.75 16.5039 12.6562 16.5039 7.21875C16.5039 3.14062 12.2383 0 8.30077 0ZM7.83202 17.5312C6.0039 17.5312 4.55077 18.9844 4.55077 20.7656C4.55077 22.5469 6.0039 24 7.83202 24C9.61327 24 11.0664 22.5469 11.0664 20.7656C11.0664 18.9844 9.61327 17.5312 7.83202 17.5312Z" fill="white"/>
</svg>
