<svg width="30" height="30" viewBox="0 0 30 30" xmlns="http://www.w3.org/2000/svg">
<circle cx="15" cy="15" r="15" fill="#6789FF"/>
<path d="M15.1805 7.7998C12.9305 7.7998 11.468 8.72793 10.3149 10.3873C10.118 10.6686 10.1742 11.0904 10.4836 11.2873L11.693 12.2154C11.9742 12.4404 12.3961 12.3842 12.6211 12.1029C13.3242 11.2311 13.8586 10.7248 14.9555 10.7248C15.8274 10.7248 16.8961 11.2592 16.8961 12.1029C16.8961 12.7498 16.3617 13.0592 15.518 13.5373C14.5055 14.0998 13.1836 14.8029 13.1836 16.5467V16.7998C13.1836 17.1936 13.493 17.4748 13.8586 17.4748H15.9117C16.2774 17.4748 16.5867 17.1936 16.5867 16.7998V16.6592C16.5867 15.4498 20.1024 15.3936 20.1024 12.1311C20.1024 9.68418 17.543 7.7998 15.1805 7.7998ZM14.8992 18.3186C13.8024 18.3186 12.9305 19.1904 12.9305 20.2592C12.9305 21.3279 13.8024 22.1998 14.8992 22.1998C15.968 22.1998 16.8399 21.3279 16.8399 20.2592C16.8399 19.1904 15.968 18.3186 14.8992 18.3186Z" fill="white"/>
</svg>
