<svg width="35" height="30" viewBox="0 0 35 30" xmlns="http://www.w3.org/2000/svg">
    <path
        d="M31.0714 0H22.5C20.692 0 19.2857 1.47321 19.2857 3.21429V11.7857C19.2857 13.5938 20.692 15 22.5 15H27.8571V19.2857C27.8571 21.6964 25.9152 23.5714 23.5714 23.5714H23.0357C22.0982 23.5714 21.4286 24.308 21.4286 25.1786V28.3929C21.4286 29.3304 22.0982 30 23.0357 30H23.5714C29.4643 30 34.2857 25.2455 34.2857 19.2857V3.21429C34.2857 1.47321 32.8125 0 31.0714 0ZM11.7857 0H3.21429C1.40625 0 0 1.47321 0 3.21429V11.7857C0 13.5938 1.40625 15 3.21429 15H8.57143V19.2857C8.57143 21.6964 6.62946 23.5714 4.28571 23.5714H3.75C2.8125 23.5714 2.14286 24.308 2.14286 25.1786V28.3929C2.14286 29.3304 2.8125 30 3.75 30H4.28571C10.1786 30 15 25.2455 15 19.2857V3.21429C15 1.47321 13.5268 0 11.7857 0Z" />
</svg>