<svg width="80" height="44" viewBox="0 0 80 44" xmlns="http://www.w3.org/2000/svg">
    <path
        d="M18.9065 21.9254C18.9065 10.3723 28.222 0.957458 39.7281 0.810425C21.4439 0.923046 6.55814 12.4808 0.476949 20.5082C-0.158983 21.3466 -0.158983 22.5041 0.476949 23.3425C7.62063 32.7698 22.9642 42.9324 39.7281 43.0403C28.2218 42.8932 18.9065 33.4783 18.9065 21.9254ZM35.1188 6.2444C28.4486 8.3279 23.5939 14.569 23.5939 21.9254C23.5939 29.2817 28.4486 35.5228 35.1188 37.6063C33.0188 33.907 30.6251 28.29 30.6251 21.9254C30.6251 15.5607 33.0188 9.94354 35.1188 6.2444ZM40.0047 7.22499C38.0844 10.2908 35.3126 15.7811 35.3126 21.9252C35.3126 28.0975 38.0766 33.569 39.9953 36.6254C41.9156 33.5596 44.6875 28.0693 44.6875 21.9252C44.6875 15.7529 41.9234 10.2816 40.0047 7.22499ZM44.8811 6.2444C46.9811 9.9437 49.3748 15.5607 49.3748 21.9254C49.3748 28.29 46.9811 33.907 44.8811 37.6063C51.5513 35.5228 56.406 29.2817 56.406 21.9254C56.4061 14.5688 51.5513 8.3279 44.8811 6.2444ZM79.5229 20.5082C72.3792 11.0809 57.0356 0.918354 40.2717 0.810425C51.7779 0.957458 61.0934 10.3723 61.0934 21.9254C61.0934 33.4784 51.7779 42.8932 40.2717 43.0403C57.9528 42.9308 72.9527 32.0159 79.5229 23.3425C80.159 22.5041 80.159 21.3464 79.5229 20.5082Z" />
</svg>