<svg width="61" height="61" viewBox="0 0 61 61" xmlns="http://www.w3.org/2000/svg">
    <path
        d="M32.7488 0.813721C28.8709 0.813721 25.6003 4.08783 25.6003 7.96985C25.6003 11.8519 28.8709 15.126 32.7488 15.126C36.6266 15.126 39.78 11.8519 39.78 7.96985C39.78 4.08783 36.6266 0.813721 32.7488 0.813721Z" />
    <path
        d="M40.5525 15.1262C38.6207 17.2706 35.8538 18.6457 32.7488 18.6457C29.6438 18.6457 26.7597 17.2706 24.8278 15.1262C23.1413 16.9985 22.0847 19.4512 22.0847 22.1651V23.9248C22.0847 24.8975 22.8709 25.6846 23.8425 25.6846H41.5378C42.5094 25.6846 43.2957 24.8975 43.2957 23.9248V22.1651C43.2957 19.4512 42.2391 16.9985 40.5525 15.1262Z" />
    <path
        d="M17.9735 54.8258L9.01554 36.8468C8.15058 35.1107 6.04542 34.4027 4.30906 35.2639L1.96777 36.4249C1.09602 36.8577 0.74129 37.9184 1.17641 38.7895L11.7233 59.9061C12.157 60.7769 13.212 61.1235 14.0767 60.6966L16.3879 59.5503C18.1311 58.6859 18.8416 56.5685 17.9735 54.8258Z" />
    <path
        d="M59.5497 29.8726C58.1082 28.8168 56.1042 29.0279 54.9091 30.3301L45.2997 42.1554C44.6317 42.8593 43.3661 43.2817 42.6981 43.2817H34.5066C33.5221 43.2817 32.7488 42.5075 32.7488 41.5219C32.7488 40.5364 33.5221 39.7622 34.5066 39.7622C36.8609 39.7622 39.4674 39.7622 41.5379 39.7622C43.4715 39.7622 45.0535 38.1785 45.0535 36.2428C45.0535 34.3071 43.4715 32.7233 41.5379 32.7233C33.2825 32.7233 41.157 32.7233 32.3269 32.7233C31.4508 32.7233 31.014 32.1672 30.323 31.5618C27.6032 29.1117 23.5321 27.9313 19.4107 28.8876C17.1222 29.4186 15.579 30.3441 14.0138 31.585L13.9617 31.5427L11.4192 33.7827L21.4111 53.84H24.3698H41.5379C44.8425 53.84 48.0067 52.2562 49.9755 49.6166L60.2878 34.835C61.448 33.2863 61.1316 31.0341 59.5497 29.8726Z" />
</svg>