<svg width="39" height="43" viewBox="0 0 39 43" xmlns="http://www.w3.org/2000/svg">
    <path
        d="M7.40008 30.15V38.55V39.25H24.5501V35.75L26.6501 33.3H31.9001L34.7001 30.85V25.6H37.5001L35.4001 20L34.0001 11.25L26.6501 2.15005L17.2001 0.0500488L10.5501 2.15005L3.90007 8.45005L1.45008 15.8C0.0500799 18.88 4.83341 26.65 7.40008 30.15Z"
        fill="white" />
    <path
        d="M27.3419 19.0431L26.6204 18.6261C26.6403 18.3929 26.6501 18.1626 26.6501 17.9321C26.6501 17.7016 26.6403 17.4711 26.6204 17.238L27.3419 16.8211C27.6245 16.6577 27.8307 16.3887 27.9152 16.0732C27.9996 15.7576 27.9554 15.4214 27.7922 15.1384L25.3313 10.8714C24.9914 10.2821 24.2389 10.0803 23.6505 10.4206L22.9234 10.8408C22.5447 10.5791 22.1456 10.3485 21.7283 10.1503V9.30957C21.7283 8.62928 21.1774 8.07776 20.4978 8.07776H15.576C14.8964 8.07776 14.3455 8.62928 14.3455 9.30957V10.1503C13.9282 10.3485 13.5291 10.5791 13.1504 10.8408L12.4233 10.4206C11.8345 10.0802 11.0823 10.2822 10.7425 10.8714L8.28156 15.1384C8.1184 15.4213 8.07419 15.7576 8.1586 16.0732C8.24309 16.3887 8.44932 16.6577 8.73191 16.8211L9.45379 17.2383C9.43377 17.4729 9.42368 17.7047 9.42368 17.9321C9.42368 18.1595 9.43377 18.3912 9.45379 18.6258L8.73191 19.0431C8.14334 19.3832 7.94171 20.1366 8.28156 20.7257L10.7425 24.9927C11.0824 25.5819 11.8348 25.7839 12.4233 25.4435L13.1504 25.0233C13.5291 25.2851 13.9282 25.5157 14.3455 25.7138V26.5546C14.3455 27.2348 14.8964 27.7864 15.576 27.7864H20.4978C21.1774 27.7864 21.7283 27.2348 21.7283 26.5546V25.7138C22.1456 25.5157 22.5447 25.2851 22.9234 25.0233L23.6505 25.4435C24.2391 25.7837 24.9915 25.5818 25.3313 24.9927L27.7922 20.7257C28.132 20.1366 27.9304 19.3832 27.3419 19.0431ZM24.0809 16.8084C24.1538 17.2024 24.1892 17.5699 24.1892 17.9321C24.1892 18.2942 24.1537 18.6617 24.0809 19.0555C23.986 19.5685 24.2242 20.0858 24.6755 20.3466L25.0458 20.5606L23.8153 22.6941L23.4421 22.4784C22.9903 22.2171 22.4232 22.2698 22.0269 22.6092C21.4553 23.0988 20.8023 23.4762 20.086 23.7308C19.5952 23.9053 19.2674 24.3702 19.2674 24.8915V25.3227H16.8064V24.8915C16.8064 24.3702 16.4785 23.9053 15.9877 23.7308C15.2715 23.4761 14.6185 23.0988 14.0469 22.6092C13.6506 22.2697 13.0836 22.2172 12.6317 22.4784L12.2584 22.6941L11.028 20.5606L11.3983 20.3466C11.8497 20.0856 12.0879 19.5682 11.9929 19.0553C11.92 18.662 11.8846 18.2945 11.8846 17.9321C11.8846 17.5696 11.9201 17.2021 11.9929 16.8087C12.0879 16.2956 11.8497 15.7782 11.3983 15.5174L11.028 15.3035L12.2584 13.17L12.6317 13.3856C13.0836 13.6469 13.6506 13.5942 14.0469 13.2548C14.6185 12.7653 15.2715 12.3879 15.9877 12.1332C16.4785 11.9587 16.8064 11.4938 16.8064 10.9724V10.5413H19.2674V10.9724C19.2674 11.4937 19.5952 11.9587 20.086 12.1332C20.8023 12.3879 21.4553 12.7653 22.0269 13.2548C22.4232 13.5944 22.9903 13.6468 23.4421 13.3856L23.8153 13.17L25.0458 15.3035L24.6755 15.5174C24.2242 15.7782 23.9859 16.2954 24.0809 16.8084Z"
        fill="#6789FF" />
    <path
        d="M18.0367 14.2367C16.0013 14.2367 14.3453 15.8944 14.3453 17.9321C14.3453 19.9698 16.0013 21.6275 18.0367 21.6275C20.0722 21.6275 21.7281 19.9698 21.7281 17.9321C21.7281 15.8944 20.0722 14.2367 18.0367 14.2367ZM18.0367 19.1638C17.3583 19.1638 16.8063 18.6113 16.8063 17.932C16.8063 17.2528 17.3583 16.7002 18.0367 16.7002C18.7152 16.7002 19.2672 17.2528 19.2672 17.932C19.2672 18.6113 18.7152 19.1638 18.0367 19.1638Z"
        fill="#6789FF" />
    <path
        d="M38.8248 26.4143L36.6441 22.0483C36.0125 20.7836 35.6768 19.3459 35.6734 17.8909C35.6678 15.3902 35.15 12.9742 34.1347 10.7095C33.1541 8.52225 31.7609 6.58552 29.9938 4.95338C28.2303 3.32436 26.1951 2.09247 23.9449 1.2918C21.6011 0.457867 19.1362 0.134723 16.62 0.332059C7.99988 1.00717 1.04576 8.03216 0.443978 16.6728C0.114048 21.4114 1.64992 25.981 4.76891 29.5396C5.65452 30.5501 6.14228 31.8175 6.14228 33.1083V41.0897C6.14228 41.77 6.6932 42.3215 7.37275 42.3215H24.5993C25.2789 42.3215 25.8298 41.77 25.8298 41.0897V37.6407C25.8298 36.5069 26.748 35.5877 27.8806 35.5877H31.9821C34.0208 35.5877 35.6735 33.9332 35.6735 31.8923V28.197H37.7243C38.639 28.1971 39.2339 27.2334 38.8248 26.4143ZM34.4431 25.7334C33.7635 25.7334 33.2126 26.285 33.2126 26.9652V31.8924C33.2126 32.5727 32.6617 33.1242 31.9821 33.1242H27.8806C25.3888 33.1242 23.3688 35.1463 23.3688 37.6407V39.858H8.60322V33.1083C8.60322 31.2193 7.8984 29.375 6.6188 27.9149C3.93605 24.854 2.61502 20.9223 2.89901 16.8441C3.41663 9.41161 9.39793 3.36887 16.8119 2.7882C21.0968 2.452 25.1859 3.86455 28.325 6.76405C31.4214 9.62422 33.2029 13.6819 33.2125 17.8966C33.2168 19.7302 33.6422 21.5468 34.4431 23.1501L35.7333 25.7334H34.4431Z"
        fill="#6789FF" />
</svg>